<svg width="64" height="64" viewBox="0 0 64 64" fill="none" xmlns="http://www.w3.org/2000/svg">
<g style="mix-blend-mode:overlay">
<circle cx="32" cy="32" r="32" fill="white"/>
<circle cx="32" cy="32" r="32" stroke="white"/>
</g>
<path d="M50 33.58C49.6854 36.9844 48.4077 40.2288 46.3165 42.9336C44.2253 45.6383 41.407 47.6916 38.1914 48.8531C34.9758 50.0146 31.496 50.2362 28.159 49.4922C24.822 48.7481 21.766 47.0691 19.3485 44.6516C16.9309 42.234 15.2519 39.178 14.5078 35.841C13.7638 32.504 13.9854 29.0242 15.1469 25.8086C16.3084 22.593 18.3617 19.7747 21.0664 17.6835C23.7712 15.5923 27.0156 14.3146 30.42 14C28.4268 16.6965 27.4677 20.0189 27.7171 23.3628C27.9664 26.7068 29.4077 29.8501 31.7788 32.2212C34.1499 34.5923 37.2932 36.0336 40.6372 36.2829C43.9811 36.5323 47.3035 35.5732 50 33.58V33.58Z" stroke="#F50057" stroke-width="2" stroke-linecap="round" stroke-linejoin="round"/>
</svg>