<svg width="63" height="63" viewBox="0 0 63 63" fill="none" xmlns="http://www.w3.org/2000/svg">
<circle cx="31.5" cy="31.5" r="31" fill="white" stroke="white"/>
<path d="M39 53.0536V45.3136C39.075 44.3599 38.9462 43.4012 38.622 42.5012C38.2979 41.6011 37.7859 40.7804 37.12 40.0936C43.4 39.3936 50 37.0136 50 26.0936C49.9995 23.3012 48.9254 20.616 47 18.5936C47.9117 16.1506 47.8472 13.4503 46.82 11.0536C46.82 11.0536 44.46 10.3536 39 14.0136C34.416 12.7712 29.584 12.7712 25 14.0136C19.54 10.3536 17.18 11.0536 17.18 11.0536C16.1528 13.4503 16.0883 16.1506 17 18.5936C15.0603 20.631 13.985 23.3405 14 26.1536C14 36.9936 20.6 39.3736 26.88 40.1536C26.222 40.8335 25.7145 41.6444 25.3906 42.5334C25.0667 43.4225 24.9336 44.3697 25 45.3136V53.0536M25 47.0536C15 50.0536 15 42.0536 11 41.0536L25 47.0536Z" stroke="#F50057" stroke-width="5" stroke-linecap="round" stroke-linejoin="round"/>
</svg>