<svg width="250" height="250" viewBox="0 0 250 250" fill="none" xmlns="http://www.w3.org/2000/svg">
<g clip-path="url(#clip0)">
<path d="M109.266 206.763H4.95337C3.64011 206.761 2.38106 206.184 1.45244 205.157C0.523826 204.131 0.00147799 202.739 0 201.288V44.7664C0.00147799 43.3148 0.523826 41.9232 1.45244 40.8968C2.38106 39.8704 3.64011 39.293 4.95337 39.2914H109.266C110.579 39.293 111.838 39.8704 112.767 40.8968C113.695 41.9232 114.218 43.3148 114.219 44.7664V201.288C114.218 202.739 113.695 204.131 112.767 205.157C111.838 206.184 110.579 206.761 109.266 206.763V206.763Z" fill="white"/>
<path d="M52.4071 80.0264C52.4072 84.5469 51.1134 88.9516 48.7109 92.6099C46.3084 96.2683 42.9205 98.9928 39.032 100.393C38.9157 100.434 38.7995 100.475 38.6814 100.514C38.1777 100.685 37.667 100.831 37.1474 100.956C36.2071 101.182 35.2527 101.328 34.2923 101.394C33.875 101.425 33.4552 101.441 33.033 101.441C30.8519 101.443 28.686 101.038 26.6272 100.242C26.5674 100.218 26.5075 100.195 26.4494 100.172C23.1137 98.8399 20.1726 96.5219 17.9466 93.47C15.7207 90.4182 14.2953 86.7496 13.8257 82.864C13.3562 78.9784 13.8605 75.0248 15.2837 71.4342C16.7069 67.8436 18.9945 64.7536 21.8971 62.501C24.7997 60.2484 28.2059 58.9196 31.7447 58.6593C35.2835 58.399 38.819 59.2173 41.9661 61.025C45.1131 62.8327 47.7509 65.5604 49.5919 68.911C51.433 72.2615 52.4068 76.1063 52.4071 80.0264V80.0264Z" fill="white"/>
<path d="M32.5689 94.2143C37.7748 94.2143 41.9951 89.5496 41.9951 83.7954C41.9951 78.0412 37.7748 73.3765 32.5689 73.3765C27.3629 73.3765 23.1426 78.0412 23.1426 83.7954C23.1426 89.5496 27.3629 94.2143 32.5689 94.2143Z" fill="#00B0FF"/>
<path d="M33.1192 89.4091L33.129 89.0198C32.4737 88.9996 31.8959 88.9542 31.4618 88.6036C31.3387 88.4986 31.2376 88.3655 31.1652 88.2133C31.0928 88.0612 31.0509 87.8937 31.0424 87.722C31.0347 87.6172 31.0491 87.5118 31.0843 87.4141C31.1195 87.3163 31.1747 87.2289 31.2454 87.1585C31.4094 87.0486 31.5972 86.9897 31.789 86.9878C31.9808 86.9859 32.1695 87.0412 32.3353 87.1479L32.6267 87.2956L32.0678 82.781L31.7189 82.8338L32.1943 86.6741C31.9997 86.5943 31.7901 86.5696 31.5846 86.6023C31.3792 86.635 31.1844 86.724 31.0181 86.8612C30.9061 86.9692 30.8183 87.1043 30.7615 87.256C30.7047 87.4077 30.6803 87.5719 30.6904 87.7357C30.7007 87.9663 30.7565 88.1916 30.8538 88.3958C30.9512 88.6001 31.0878 88.7783 31.254 88.918C31.8118 89.3686 32.5367 89.391 33.1192 89.4091Z" fill="#2F2E41"/>
<path d="M29.9929 83.165H28.0958V83.5544H29.9929V83.165Z" fill="#2F2E41"/>
<path d="M35.9813 83.165H34.0841V83.5544H35.9813V83.165Z" fill="#2F2E41"/>
<path d="M35.247 98.361C35.272 98.2331 35.285 98.1026 35.2858 97.9717C35.2851 97.4814 35.1085 97.0115 34.7949 96.6648C34.4813 96.3181 34.0561 96.123 33.6125 96.1223H31.1467C30.7031 96.1227 30.2777 96.3177 29.964 96.6644C29.6503 97.0112 29.4739 97.4813 29.4735 97.9717C29.4734 98.1033 29.4864 98.2345 29.5122 98.363C28.5814 98.6872 27.7015 99.1685 26.9038 99.79C26.7488 99.9087 26.5956 100.037 26.4494 100.172C26.5075 100.195 26.5674 100.218 26.6273 100.242C28.6861 101.038 30.8519 101.443 33.033 101.441C33.4557 101.441 33.8755 101.425 34.2923 101.394C35.2527 101.328 36.2071 101.182 37.1474 100.956C37.667 100.831 38.1777 100.685 38.6814 100.514C37.6849 99.5397 36.515 98.8063 35.247 98.361V98.361Z" fill="#2F2E41"/>
<path d="M34.93 101.147C34.7014 101.166 34.4814 101.251 34.2924 101.394C35.2527 101.328 36.2071 101.182 37.1474 100.956L34.93 101.147Z" fill="#2F2E41"/>
<path d="M41.1179 81.3204L24.7426 74.6989C24.5671 74.628 24.4243 74.4829 24.3456 74.2955C24.2669 74.1082 24.2588 73.894 24.323 73.7001L24.3784 73.4106C25.6572 69.5466 29.8961 67.1148 33.3919 68.5284L38.431 70.5659C41.9268 71.9795 43.4462 76.5549 42.1673 80.4189L42.0215 80.8566C41.9573 81.0505 41.8261 81.2084 41.6566 81.2953C41.4871 81.3823 41.2934 81.3913 41.1179 81.3204V81.3204Z" fill="#2F2E41"/>
<path d="M42 81.6878C19.176 82.6186 17.1816 79.4488 24.1359 74.4644L25.6113 71.4638L42.5196 78.2775L42 81.6878Z" fill="#2F2E41"/>
<path d="M37.5246 70.0907C37.6506 69.6274 37.1109 69.0385 36.3191 68.7754C35.5272 68.5124 34.7832 68.6747 34.6572 69.138C34.5312 69.6014 35.0709 70.1903 35.8627 70.4534C36.6546 70.7164 37.3986 70.5541 37.5246 70.0907Z" fill="#2F2E41"/>
<path d="M33.0331 102.025C30.7924 102.028 28.5675 101.611 26.4526 100.793L26.2687 100.72C21.8388 98.9508 18.1202 95.502 15.7743 90.9871C13.4285 86.4723 12.6074 81.1841 13.4571 76.0631C14.3068 70.9421 16.7723 66.3201 20.415 63.0193C24.0577 59.7184 28.6416 57.9526 33.3514 58.0359C38.0611 58.1191 42.5916 60.0461 46.1369 63.474C49.6823 66.9019 52.0127 71.6086 52.7139 76.7571C53.415 81.9055 52.4413 87.1619 49.966 91.5916C47.4908 96.0212 43.6743 99.3368 39.1954 100.949C39.0702 100.993 38.9524 101.034 38.8327 101.074C38.3324 101.244 37.8017 101.397 37.2594 101.527C36.2929 101.758 35.3119 101.909 34.3248 101.977C33.9008 102.009 33.4651 102.025 33.0331 102.025ZM33.0331 59.1961C28.5984 59.1968 24.3059 60.9258 20.9106 64.079C17.5154 67.2323 15.2347 71.6079 14.4698 76.4361C13.705 81.2644 14.5048 86.2361 16.7288 90.4769C18.9527 94.7178 22.4582 97.956 26.6289 99.6222L26.8034 99.6909C28.8055 100.465 30.9119 100.86 33.0331 100.857C33.4415 100.857 33.8531 100.841 34.2567 100.811C35.1915 100.747 36.1204 100.604 37.0357 100.385C37.5486 100.262 38.0501 100.118 38.5261 99.9561C38.644 99.9171 38.7559 99.8777 38.8678 99.8384C43.1337 98.3026 46.7641 95.1353 49.1063 90.9058C51.4486 86.6763 52.3491 81.662 51.6459 76.7644C50.9428 71.8667 48.6822 67.4069 45.2704 64.1866C41.8587 60.9663 37.5196 59.1967 33.0331 59.1961V59.1961Z" fill="#CCCCCC"/>
<path d="M109.266 206.763H4.95337C3.64011 206.761 2.38106 206.184 1.45244 205.157C0.523826 204.131 0.00147799 202.739 0 201.288V44.7664C0.00147799 43.3148 0.523826 41.9232 1.45244 40.8968C2.38106 39.8704 3.64011 39.293 4.95337 39.2914H109.266C110.579 39.293 111.838 39.8704 112.767 40.8968C113.695 41.9232 114.218 43.3148 114.219 44.7664V201.288C114.218 202.739 113.695 204.131 112.767 205.157C111.838 206.184 110.579 206.761 109.266 206.763V206.763ZM4.95337 39.9355C3.79462 39.937 2.6837 40.4464 1.86433 41.352C1.04497 42.2577 0.584065 43.4856 0.582751 44.7664V201.288C0.584064 202.568 1.04496 203.796 1.86432 204.702C2.68369 205.608 3.79461 206.117 4.95337 206.118H109.266C110.424 206.117 111.535 205.608 112.355 204.702C113.174 203.796 113.635 202.568 113.636 201.288V44.7664C113.635 43.4856 113.174 42.2577 112.355 41.352C111.535 40.4464 110.424 39.937 109.266 39.9355H4.95337Z" fill="#CCCCCC"/>
<path d="M89.0721 79.9431H59.5553C58.9365 79.9422 58.3433 79.6699 57.906 79.186C57.4687 78.702 57.2231 78.046 57.2231 77.362C57.2231 76.6781 57.4687 76.0221 57.906 75.5381C58.3433 75.0542 58.9365 74.7819 59.5553 74.781H89.0721C89.379 74.7806 89.683 74.8471 89.9666 74.9766C90.2502 75.1061 90.508 75.2961 90.7252 75.5359C90.9423 75.7756 91.1146 76.0602 91.2321 76.3736C91.3496 76.6869 91.4101 77.0228 91.4101 77.362C91.4101 77.7013 91.3496 78.0372 91.2321 78.3505C91.1146 78.6639 90.9423 78.9485 90.7252 79.1882C90.508 79.428 90.2502 79.618 89.9666 79.7475C89.683 79.877 89.379 79.9435 89.0721 79.9431V79.9431Z" fill="#E6E6E6"/>
<path d="M98.7045 88.654H59.5553C58.9365 88.6532 58.3433 88.3809 57.906 87.8969C57.4687 87.413 57.2231 86.757 57.2231 86.073C57.2231 85.389 57.4687 84.733 57.906 84.2491C58.3433 83.7651 58.9365 83.4928 59.5553 83.492H98.7045C99.3233 83.4928 99.9165 83.7651 100.354 84.2491C100.791 84.733 101.037 85.389 101.037 86.073C101.037 86.757 100.791 87.413 100.354 87.8969C99.9165 88.3809 99.3233 88.6532 98.7045 88.654V88.654Z" fill="#E6E6E6"/>
<path d="M89.0291 122.064H15.5146C15.2077 122.065 14.9038 121.998 14.6201 121.869C14.3365 121.739 14.0787 121.549 13.8616 121.309C13.6444 121.07 13.4722 120.785 13.3547 120.472C13.2371 120.158 13.1766 119.822 13.1766 119.483C13.1766 119.144 13.2371 118.808 13.3547 118.495C13.4722 118.181 13.6444 117.897 13.8616 117.657C14.0787 117.417 14.3365 117.227 14.6201 117.098C14.9038 116.968 15.2077 116.902 15.5146 116.902H89.0291C89.6479 116.903 90.2411 117.175 90.6784 117.659C91.1157 118.143 91.3613 118.799 91.3613 119.483C91.3613 120.167 91.1157 120.823 90.6784 121.307C90.2411 121.791 89.6479 122.063 89.0291 122.064V122.064Z" fill="#E6E6E6"/>
<path d="M98.6614 130.775H15.5146C15.2077 130.776 14.9038 130.709 14.6201 130.58C14.3365 130.45 14.0787 130.26 13.8616 130.02C13.6444 129.781 13.4722 129.496 13.3547 129.183C13.2371 128.869 13.1766 128.533 13.1766 128.194C13.1766 127.855 13.2371 127.519 13.3547 127.206C13.4722 126.892 13.6444 126.608 13.8616 126.368C14.0787 126.128 14.3365 125.938 14.6201 125.809C14.9038 125.679 15.2077 125.613 15.5146 125.613H98.6614C98.9683 125.613 99.2723 125.679 99.5559 125.809C99.8396 125.938 100.097 126.128 100.314 126.368C100.532 126.608 100.704 126.892 100.821 127.206C100.939 127.519 100.999 127.855 100.999 128.194C100.999 128.533 100.939 128.869 100.821 129.183C100.704 129.496 100.532 129.781 100.314 130.02C100.097 130.26 99.8396 130.45 99.5559 130.58C99.2723 130.709 98.9683 130.776 98.6614 130.775V130.775Z" fill="#E6E6E6"/>
<path d="M89.0291 150.796H15.5147C14.8954 150.796 14.3014 150.524 13.8635 150.04C13.4256 149.556 13.1796 148.9 13.1796 148.215C13.1796 147.531 13.4256 146.874 13.8635 146.39C14.3014 145.906 14.8954 145.634 15.5147 145.634H89.0291C89.6485 145.634 90.2424 145.906 90.6803 146.39C91.1182 146.874 91.3643 147.531 91.3643 148.215C91.3643 148.9 91.1182 149.556 90.6803 150.04C90.2424 150.524 89.6485 150.796 89.0291 150.796V150.796Z" fill="#E6E6E6"/>
<path d="M98.6614 159.507H15.5147C14.8954 159.507 14.3014 159.235 13.8635 158.751C13.4256 158.267 13.1796 157.611 13.1796 156.926C13.1796 156.242 13.4256 155.585 13.8635 155.101C14.3014 154.617 14.8954 154.345 15.5147 154.345H98.6614C99.2808 154.345 99.8747 154.617 100.313 155.101C100.751 155.585 100.997 156.242 100.997 156.926C100.997 157.611 100.751 158.267 100.313 158.751C99.8747 159.235 99.2808 159.507 98.6614 159.507V159.507Z" fill="#E6E6E6"/>
<path d="M89.0291 179.528H15.5147C14.8954 179.528 14.3014 179.256 13.8635 178.772C13.4256 178.288 13.1796 177.632 13.1796 176.947C13.1796 176.263 13.4256 175.606 13.8635 175.122C14.3014 174.638 14.8954 174.366 15.5147 174.366H89.0291C89.6485 174.366 90.2424 174.638 90.6803 175.122C91.1182 175.606 91.3643 176.263 91.3643 176.947C91.3643 177.632 91.1182 178.288 90.6803 178.772C90.2424 179.256 89.6485 179.528 89.0291 179.528V179.528Z" fill="#E6E6E6"/>
<path d="M98.6614 188.239H15.5147C14.8954 188.239 14.3014 187.967 13.8635 187.483C13.4256 186.999 13.1796 186.343 13.1796 185.658C13.1796 184.974 13.4256 184.317 13.8635 183.833C14.3014 183.349 14.8954 183.077 15.5147 183.077H98.6614C99.2808 183.077 99.8747 183.349 100.313 183.833C100.751 184.317 100.997 184.974 100.997 185.658C100.997 186.343 100.751 186.999 100.313 187.483C99.8747 187.967 99.2808 188.239 98.6614 188.239V188.239Z" fill="#E6E6E6"/>
<path d="M245.047 167.471L140.734 167.471C139.421 167.47 138.162 166.892 137.233 165.866C136.305 164.84 135.782 163.448 135.781 161.996L135.781 5.47512C135.782 4.02355 136.305 2.63191 137.233 1.6055C138.162 0.579086 139.421 0.0017253 140.734 9.06157e-05L245.046 0C246.36 0.00163259 247.619 0.578984 248.547 1.6054C249.476 2.63181 249.998 4.02345 250 5.47502L250 161.996C249.999 163.448 249.476 164.839 248.548 165.866C247.619 166.892 246.36 167.47 245.047 167.471V167.471Z" fill="white"/>
<path d="M245.047 167.471L140.734 167.471C139.421 167.47 138.162 166.892 137.233 165.866C136.305 164.84 135.782 163.448 135.781 161.996L135.781 5.47512C135.782 4.02355 136.305 2.63191 137.233 1.6055C138.162 0.579086 139.421 0.0017253 140.734 9.06157e-05L245.046 0C246.36 0.00163259 247.619 0.578984 248.547 1.6054C249.476 2.63181 249.998 4.02345 250 5.47502L250 161.996C249.999 163.448 249.476 164.839 248.548 165.866C247.619 166.892 246.36 167.47 245.047 167.471V167.471ZM140.734 0.644211C139.575 0.645663 138.464 1.1551 137.645 2.06076C136.826 2.96641 136.365 4.19433 136.364 5.47512L136.364 161.996C136.365 163.277 136.826 164.505 137.645 165.411C138.465 166.316 139.576 166.826 140.734 166.827L245.047 166.827C246.205 166.826 247.316 166.316 248.136 165.411C248.955 164.505 249.416 163.277 249.417 161.996L249.417 5.47502C249.416 4.19423 248.955 2.96632 248.136 2.06066C247.316 1.155 246.205 0.645571 245.046 0.64412L140.734 0.644211Z" fill="#CCCCCC"/>
<path d="M188.237 40.5217C188.237 44.7571 187.101 48.8974 184.972 52.4189C182.843 55.9405 179.817 58.6853 176.277 60.3061C172.737 61.9269 168.841 62.351 165.083 61.5247C161.325 60.6984 157.873 58.6589 155.163 55.664C152.454 52.6692 150.609 48.8535 149.861 44.6995C149.113 40.5455 149.497 36.2398 150.963 32.3268C152.43 28.4139 154.913 25.0694 158.099 22.7163C161.285 20.3633 165.031 19.1074 168.863 19.1074C174.001 19.1091 178.928 21.3659 182.561 25.3815C186.194 29.397 188.235 34.8428 188.237 40.5217V40.5217Z" fill="white"/>
<path d="M177.817 44.186C177.606 57.8816 159.175 57.8795 158.965 44.1855C159.176 30.4903 177.607 30.4925 177.817 44.186Z" fill="#00B0FF"/>
<path d="M168.017 48.4369L168.007 48.0476C170.435 48.4058 170.958 45.08 168.509 46.3234L169.068 41.8088L169.417 41.8616L168.942 45.7019C171.52 45.2778 170.566 48.826 168.017 48.4369Z" fill="#2F2E41"/>
<path d="M173.04 42.1928H171.143V42.5822H173.04V42.1928Z" fill="#2F2E41"/>
<path d="M167.052 42.1928H165.155V42.5822H167.052V42.1928Z" fill="#2F2E41"/>
<path d="M171.447 58.7532C171.817 55.9946 168.895 56.5397 167.348 56.5125C167.099 56.5133 166.853 56.5756 166.628 56.6949C166.403 56.8141 166.205 56.9873 166.049 57.2018C165.892 57.4162 165.781 57.6666 165.723 57.9347C165.665 58.2027 165.662 58.4817 165.714 58.7512C164.517 59.1602 163.408 59.836 162.457 60.7369C166.466 62.2821 170.823 62.3355 174.862 60.8888C173.877 59.9114 172.712 59.1827 171.447 58.7532Z" fill="#2F2E41"/>
<path d="M163.959 39.2581C165.706 38.1422 167.825 38.9983 169.629 39.4663C173.053 40.6296 177.854 39.1729 178.27 34.6651C178.703 30.4728 173.515 28.1363 171.856 32.3088L172.339 32.2391C166.961 23.4043 157.605 23.7393 157.667 35.8857C157.647 36.2609 158.175 36.2596 158.195 35.8854C157.997 28.7278 162.283 23.835 168.341 28.4349C169.694 29.6056 170.887 30.9862 171.883 32.5339C172.514 33.3154 172.651 29.9497 175.671 30.8312C178.994 32.2543 177.91 37.5142 174.939 38.6689C171.269 40.7414 167.294 36.723 163.693 38.7536C163.635 38.794 163.593 38.8578 163.577 38.9314C163.561 39.0051 163.571 39.0828 163.605 39.1482C163.64 39.2137 163.696 39.2617 163.762 39.2822C163.828 39.3027 163.899 39.2941 163.959 39.2581V39.2581Z" fill="#2F2E41"/>
<path d="M168.863 62.5202C163.86 62.5155 159.042 60.4265 155.37 56.6697C151.699 52.9129 149.444 47.7644 149.054 42.2511C148.665 36.7378 150.17 31.2649 153.269 26.9238C156.369 22.5827 160.835 19.6925 165.777 18.8296C170.719 17.9667 175.773 19.1946 179.932 22.2683C184.092 25.342 187.05 30.0357 188.217 35.4132C189.384 40.7908 188.674 46.4569 186.229 51.2817C183.784 56.1064 179.783 59.7352 175.025 61.4442C173.035 62.1596 170.955 62.5227 168.863 62.5202ZM168.863 19.6914C165.135 19.6908 161.49 20.9122 158.39 23.2012C155.29 25.4902 152.874 28.7439 151.447 32.5508C150.02 36.3577 149.647 40.5468 150.374 44.5884C151.101 48.6299 152.896 52.3423 155.532 55.2561C158.168 58.1699 161.527 60.1541 165.184 60.9579C168.84 61.7616 172.63 61.3488 176.074 59.7716C179.519 58.1944 182.462 55.5237 184.533 52.0972C186.604 48.6708 187.709 44.6424 187.709 40.5217C187.703 34.9991 185.716 29.7044 182.183 25.7993C178.649 21.8943 173.859 19.6976 168.863 19.6914V19.6914Z" fill="#CCCCCC"/>
<path d="M224.853 40.6517L195.336 40.6517C194.717 40.6517 194.123 40.3798 193.685 39.8958C193.247 39.4117 193.001 38.7552 193.001 38.0707C193.001 37.3862 193.247 36.7297 193.685 36.2457C194.123 35.7616 194.717 35.4897 195.336 35.4897L224.853 35.4897C225.472 35.4897 226.066 35.7616 226.504 36.2456C226.942 36.7297 227.188 37.3862 227.188 38.0707C227.188 38.7552 226.942 39.4117 226.504 39.8958C226.066 40.3798 225.472 40.6517 224.853 40.6517V40.6517Z" fill="#E6E6E6"/>
<path d="M234.485 49.3627L195.336 49.3627C195.029 49.3631 194.725 49.2967 194.442 49.1672C194.158 49.0376 193.9 48.8476 193.683 48.6079C193.466 48.3682 193.294 48.0835 193.176 47.7701C193.059 47.4568 192.998 47.1209 192.998 46.7817C192.998 46.4425 193.059 46.1066 193.176 45.7932C193.294 45.4799 193.466 45.1952 193.683 44.9555C193.9 44.7158 194.158 44.5257 194.442 44.3962C194.725 44.2667 195.029 44.2002 195.336 44.2007L234.485 44.2006C235.105 44.2006 235.699 44.4726 236.136 44.9566C236.574 45.4406 236.82 46.0971 236.82 46.7817C236.82 47.4662 236.574 48.1227 236.136 48.6067C235.699 49.0907 235.105 49.3627 234.485 49.3627Z" fill="#E6E6E6"/>
<path d="M224.81 82.7728L151.295 82.7729C150.677 82.772 150.083 82.4998 149.646 82.0158C149.209 81.5319 148.963 80.8759 148.963 80.1919C148.963 79.5079 149.209 78.8519 149.646 78.3679C150.083 77.884 150.677 77.6117 151.295 77.6109L224.81 77.6108C225.429 77.6108 226.023 77.8827 226.461 78.3667C226.899 78.8508 227.145 79.5073 227.145 80.1918C227.145 80.8763 226.899 81.5328 226.461 82.0169C226.023 82.5009 225.429 82.7728 224.81 82.7728V82.7728Z" fill="#E6E6E6"/>
<path d="M234.442 91.4838L151.295 91.4839C150.989 91.4843 150.685 91.4178 150.401 91.2883C150.117 91.1588 149.86 90.9687 149.642 90.729C149.425 90.4893 149.253 90.2047 149.136 89.8913C149.018 89.5779 148.957 89.2421 148.957 88.9028C148.957 88.5636 149.018 88.2277 149.136 87.9144C149.253 87.601 149.425 87.3164 149.642 87.0767C149.86 86.8369 150.117 86.6469 150.401 86.5174C150.685 86.3878 150.989 86.3214 151.295 86.3218L234.442 86.3217C235.062 86.3217 235.656 86.5937 236.093 87.0777C236.531 87.5617 236.777 88.2182 236.777 88.9028C236.777 89.5873 236.531 90.2438 236.093 90.7278C235.656 91.2119 235.062 91.4838 234.442 91.4838V91.4838Z" fill="#E6E6E6"/>
<path d="M224.81 111.505L151.296 111.505C150.677 111.504 150.084 111.232 149.646 110.748C149.209 110.264 148.963 109.608 148.963 108.924C148.963 108.24 149.209 107.584 149.646 107.1C150.084 106.616 150.677 106.344 151.296 106.343L224.81 106.343C225.429 106.343 226.023 106.615 226.461 107.099C226.899 107.583 227.145 108.239 227.145 108.924C227.145 109.608 226.899 110.265 226.461 110.749C226.023 111.233 225.429 111.505 224.81 111.505Z" fill="#E6E6E6"/>
<path d="M234.442 120.216L151.296 120.216C150.989 120.216 150.685 120.15 150.401 120.02C150.117 119.891 149.86 119.701 149.642 119.461C149.425 119.221 149.253 118.937 149.136 118.623C149.018 118.31 148.958 117.974 148.958 117.635C148.958 117.296 149.018 116.96 149.136 116.646C149.253 116.333 149.425 116.048 149.642 115.809C149.86 115.569 150.117 115.379 150.401 115.249C150.685 115.12 150.989 115.054 151.296 115.054L234.442 115.054C235.062 115.054 235.656 115.326 236.093 115.81C236.531 116.294 236.777 116.95 236.777 117.635C236.777 118.319 236.531 118.976 236.093 119.46C235.656 119.944 235.062 120.216 234.442 120.216V120.216Z" fill="#E6E6E6"/>
<path d="M224.81 140.237L151.296 140.237C150.676 140.237 150.082 139.965 149.644 139.481C149.206 138.997 148.96 138.341 148.96 137.656C148.96 136.972 149.206 136.315 149.644 135.831C150.082 135.347 150.676 135.075 151.296 135.075L224.81 135.075C225.429 135.075 226.023 135.347 226.461 135.831C226.899 136.315 227.145 136.971 227.145 137.656C227.145 138.341 226.899 138.997 226.461 139.481C226.023 139.965 225.429 140.237 224.81 140.237V140.237Z" fill="#E6E6E6"/>
<path d="M234.442 148.948L151.296 148.948C150.676 148.948 150.082 148.676 149.644 148.192C149.206 147.708 148.96 147.052 148.96 146.367C148.96 145.683 149.206 145.026 149.644 144.542C150.082 144.058 150.676 143.786 151.296 143.786L234.442 143.786C235.062 143.786 235.656 144.058 236.094 144.542C236.531 145.026 236.777 145.682 236.777 146.367C236.777 147.051 236.531 147.708 236.094 148.192C235.656 148.676 235.062 148.948 234.442 148.948V148.948Z" fill="#E6E6E6"/>
<path d="M182.11 234.782H77.7972C76.4839 234.78 75.2249 234.203 74.2962 233.176C73.3676 232.15 72.8453 230.758 72.8438 229.307V72.7856C72.8453 71.334 73.3676 69.9424 74.2962 68.916C75.2249 67.8896 76.4839 67.3122 77.7972 67.3106H182.11C183.423 67.3122 184.682 67.8896 185.61 68.916C186.539 69.9424 187.061 71.334 187.063 72.7856V229.307C187.061 230.758 186.539 232.15 185.61 233.176C184.682 234.203 183.423 234.78 182.11 234.782V234.782Z" fill="white"/>
<path d="M86.4971 107.605C86.4937 110.424 86.9953 113.215 87.9729 115.819C88.9505 118.422 90.3848 120.785 92.1931 122.773C92.3446 122.938 92.4996 123.104 92.6563 123.265C93.6005 124.24 94.6307 125.108 95.7315 125.856C95.9428 126 96.1542 126.139 96.3709 126.273C97.4841 126.966 98.657 127.536 99.8723 127.972C100.082 128.048 100.295 128.12 100.508 128.187C104.371 129.411 108.482 129.283 112.277 127.821C112.351 127.791 112.425 127.762 112.497 127.733C115.828 126.394 118.763 124.07 120.982 121.014C123.201 117.959 124.619 114.29 125.083 110.405C125.546 106.521 125.036 102.571 123.609 98.9844C122.182 95.398 119.892 92.3131 116.988 90.0655C114.085 87.8179 110.679 86.4937 107.142 86.2371C103.605 85.9804 100.072 86.8011 96.9279 88.6099C93.7835 90.4186 91.1484 93.1461 89.3092 96.4954C87.4701 99.8447 86.4974 103.687 86.4971 107.605V107.605Z" fill="white"/>
<path d="M101.78 118.102C101.789 119.761 101.236 121.363 100.229 122.594C99.233 123.802 97.7499 124.604 96.2533 124.272C94.8753 123.967 93.7555 122.635 93.8952 121.025C93.9183 120.676 94.0101 120.337 94.164 120.031C94.3178 119.726 94.5302 119.461 94.7862 119.255C95.0421 119.05 95.3356 118.908 95.6461 118.841C95.9567 118.773 96.2767 118.782 96.5841 118.865C97.8932 119.241 98.4148 121.326 97.3239 122.305C97.0621 122.54 96.6861 122.129 96.9503 121.892C97.1132 121.727 97.2361 121.52 97.3078 121.289C97.3795 121.058 97.3977 120.811 97.3607 120.571C97.3236 120.33 97.2326 120.104 97.0959 119.912C96.9592 119.721 96.7812 119.57 96.5782 119.474C96.3386 119.389 96.0848 119.366 95.8358 119.406C95.5869 119.445 95.3494 119.547 95.1412 119.703C94.9331 119.859 94.7599 120.066 94.6346 120.307C94.5094 120.548 94.4354 120.817 94.4183 121.095C94.3318 122.453 95.2729 123.475 96.4269 123.716C97.6752 123.976 98.913 123.27 99.7589 122.295C100.728 121.163 101.263 119.66 101.251 118.102C101.254 118.026 101.283 117.954 101.332 117.901C101.381 117.849 101.447 117.819 101.516 117.819C101.584 117.819 101.65 117.849 101.699 117.901C101.749 117.954 101.777 118.026 101.78 118.102V118.102Z" fill="#2F2E41"/>
<path d="M106.939 121.814C112.145 121.814 116.365 117.15 116.365 111.395C116.365 105.641 112.145 100.976 106.939 100.976C101.733 100.976 97.513 105.641 97.513 111.395C97.513 117.15 101.733 121.814 106.939 121.814Z" fill="#00B0FF"/>
<path d="M106.457 115.841L106.447 115.452C107.102 115.431 107.68 115.386 108.114 115.035C108.237 114.93 108.339 114.797 108.411 114.645C108.483 114.493 108.525 114.326 108.534 114.154C108.541 114.049 108.527 113.944 108.492 113.846C108.457 113.748 108.402 113.661 108.331 113.59C108.167 113.481 107.979 113.422 107.787 113.42C107.595 113.418 107.407 113.473 107.241 113.58L106.949 113.727L107.508 109.213L107.857 109.266L107.382 113.106C107.577 113.026 107.786 113.001 107.992 113.034C108.197 113.067 108.392 113.156 108.558 113.293C108.67 113.401 108.758 113.536 108.815 113.688C108.872 113.84 108.896 114.004 108.886 114.168C108.876 114.398 108.82 114.623 108.722 114.828C108.625 115.032 108.488 115.21 108.322 115.35C107.764 115.8 107.039 115.823 106.457 115.841Z" fill="#2F2E41"/>
<path d="M111.48 109.597H109.583V109.986H111.48V109.597Z" fill="#2F2E41"/>
<path d="M105.492 109.597H103.595V109.986H105.492V109.597Z" fill="#2F2E41"/>
<path d="M100.508 128.187C104.371 129.411 108.482 129.283 112.277 127.821C112.351 127.791 112.425 127.762 112.497 127.733C111.603 126.971 110.592 126.393 109.512 126.028C109.588 125.728 109.587 125.411 109.508 125.113C109.401 124.734 109.187 124.404 108.896 124.171C108.606 123.938 108.255 123.815 107.897 123.82H105.6C105.242 123.815 104.892 123.937 104.602 124.17C104.312 124.403 104.098 124.733 103.992 125.111C103.913 125.41 103.912 125.728 103.988 126.028C103.037 126.35 102.138 126.836 101.325 127.47C101.162 127.597 101.003 127.729 100.85 127.867C100.734 127.971 100.619 128.078 100.508 128.187Z" fill="#2F2E41"/>
<path d="M114.324 110.29C114.324 112.046 115.106 113.502 116.122 113.755C116.225 113.781 116.331 113.794 116.437 113.794C117.601 113.794 118.551 112.223 118.551 110.29C118.577 109.293 118.289 108.318 117.737 107.53C117.565 107.3 117.354 107.11 117.115 106.971C116.906 106.85 116.673 106.787 116.437 106.786C116.113 106.79 115.798 106.907 115.537 107.121C114.82 107.681 114.324 108.89 114.324 110.29Z" fill="#3F3D56"/>
<path d="M95.4779 110.29C95.4779 111.801 96.0556 113.089 96.8658 113.582C97.0876 113.719 97.3372 113.792 97.5915 113.794C97.648 113.794 97.7045 113.79 97.7605 113.783C98.8454 113.64 99.705 112.13 99.705 110.29C99.705 108.816 99.1537 107.553 98.3752 107.037C98.1397 106.875 97.8686 106.789 97.5915 106.786C97.3553 106.787 97.1227 106.85 96.9133 106.971C96.6741 107.11 96.4622 107.301 96.2898 107.531C95.739 108.32 95.4522 109.294 95.4779 110.29V110.29Z" fill="#3F3D56"/>
<path d="M96.9976 113.246C97.0395 113.246 97.0809 113.235 97.1182 113.214C97.1555 113.193 97.1877 113.162 97.2121 113.124C97.2366 113.087 97.2526 113.043 97.2588 112.997C97.265 112.951 97.2613 112.905 97.248 112.861C96.743 111.201 96.5911 109.435 96.8041 107.7C97.017 105.965 97.5891 104.307 98.4758 102.856C99.3625 101.405 100.54 100.2 101.917 99.3337C103.293 98.4675 104.832 97.9638 106.414 97.8618C107.995 97.7598 109.577 98.0623 111.035 98.7457C112.494 99.429 113.79 100.475 114.823 101.802C115.857 103.129 116.599 104.702 116.993 106.398C117.387 108.094 117.422 109.867 117.095 111.581C117.081 111.656 117.095 111.735 117.133 111.8C117.171 111.865 117.231 111.91 117.299 111.926C117.368 111.942 117.439 111.927 117.498 111.885C117.557 111.843 117.598 111.777 117.612 111.701C117.956 109.9 117.92 108.035 117.506 106.252C117.091 104.469 116.311 102.815 115.224 101.42C114.138 100.024 112.775 98.9246 111.242 98.206C109.708 97.4875 108.045 97.1695 106.383 97.2768C104.72 97.384 103.102 97.9137 101.654 98.8245C100.207 99.7354 98.9691 101.003 98.0369 102.529C97.1048 104.054 96.5035 105.797 96.2798 107.621C96.0562 109.446 96.2161 111.302 96.7473 113.047C96.7649 113.105 96.7986 113.156 96.8435 113.191C96.8884 113.227 96.9423 113.246 96.9976 113.246V113.246Z" fill="#3F3D56"/>
<path d="M111.674 104.645C111.831 104.927 111.896 105.26 111.859 105.588C111.822 105.917 111.685 106.221 111.47 106.452C110.959 107.084 110.143 107.124 109.434 107.007C108.639 106.875 107.796 106.463 106.991 106.741C106.305 106.977 105.815 107.665 105.102 107.838C104.47 107.991 103.714 107.788 103.493 107.044C103.386 106.686 103.896 106.532 104.002 106.888C104.146 107.37 104.765 107.361 105.119 107.227C105.688 107.013 106.126 106.493 106.684 106.245C107.35 106.017 108.063 106.019 108.728 106.251C109.36 106.408 110.087 106.641 110.717 106.347C111.183 106.13 111.553 105.445 111.218 104.94C111.017 104.636 111.475 104.344 111.674 104.645V104.645Z" fill="#2F2E41"/>
<path d="M105.871 129.604C104.007 129.606 102.153 129.317 100.362 128.748C100.151 128.682 99.93 128.608 99.7078 128.528C98.4598 128.078 97.2552 127.494 96.1117 126.782C95.8972 126.649 95.6819 126.509 95.4542 126.353C94.3237 125.585 93.2655 124.693 92.2955 123.692C92.1354 123.527 91.9769 123.357 91.8218 123.188C88.7711 119.826 86.7898 115.461 86.1754 110.748C85.5611 106.035 86.3469 101.229 88.4148 97.0522C90.4827 92.8752 93.7211 89.5525 97.6434 87.5835C101.566 85.6145 105.96 85.1054 110.167 86.1327C114.373 87.1601 118.164 89.6683 120.971 93.2807C123.777 96.8931 125.448 101.415 125.731 106.166C126.014 110.917 124.894 115.642 122.541 119.63C120.187 123.618 116.726 126.654 112.678 128.282C112.605 128.311 112.53 128.341 112.455 128.371C110.339 129.189 108.113 129.606 105.871 129.604V129.604ZM105.871 86.7751C102.141 86.7753 98.4953 87.9987 95.3949 90.2906C92.2944 92.5825 89.879 95.8398 88.4544 99.6499C87.0297 103.46 86.66 107.652 87.3919 111.694C88.1239 115.737 89.9246 119.448 92.5661 122.359C92.7123 122.519 92.8637 122.68 93.0167 122.838C93.9354 123.786 94.9376 124.631 96.0083 125.359C96.224 125.506 96.427 125.638 96.6293 125.764C97.7124 126.438 98.8534 126.992 100.035 127.417C100.245 127.493 100.451 127.562 100.651 127.624C104.41 128.816 108.41 128.693 112.102 127.269L112.316 127.184C116.48 125.509 119.976 122.266 122.192 118.025C124.407 113.783 125.2 108.815 124.431 103.991C123.662 99.1682 121.379 94.7987 117.985 91.6502C114.591 88.5018 110.302 86.7757 105.871 86.7751L105.871 86.7751Z" fill="#CCCCCC"/>
<path d="M182.11 234.782H77.7972C76.4839 234.78 75.2249 234.203 74.2962 233.176C73.3676 232.15 72.8453 230.758 72.8438 229.307V72.7856C72.8453 71.334 73.3676 69.9424 74.2962 68.916C75.2249 67.8896 76.4839 67.3122 77.7972 67.3106H182.11C183.423 67.3122 184.682 67.8896 185.61 68.916C186.539 69.9424 187.061 71.334 187.063 72.7856V229.307C187.061 230.758 186.539 232.15 185.61 233.176C184.682 234.203 183.423 234.78 182.11 234.782V234.782ZM77.7972 67.9547C76.6384 67.9562 75.5275 68.4656 74.7081 69.3713C73.8888 70.2769 73.4279 71.5048 73.4266 72.7856V229.307C73.4279 230.588 73.8888 231.815 74.7081 232.721C75.5275 233.627 76.6384 234.136 77.7972 234.138H182.11C183.268 234.136 184.379 233.627 185.199 232.721C186.018 231.815 186.479 230.588 186.48 229.307V72.7856C186.479 71.5048 186.018 70.2769 185.199 69.3713C184.379 68.4656 183.268 67.9562 182.11 67.9547H77.7972Z" fill="#3F3D56"/>
<path d="M161.916 107.962H132.399C131.78 107.962 131.186 107.69 130.748 107.206C130.31 106.722 130.064 106.066 130.064 105.381C130.064 104.697 130.31 104.04 130.748 103.556C131.186 103.072 131.78 102.8 132.399 102.8H161.916C162.535 102.8 163.129 103.072 163.567 103.556C164.005 104.04 164.251 104.697 164.251 105.381C164.251 106.066 164.005 106.722 163.567 107.206C163.129 107.69 162.535 107.962 161.916 107.962V107.962Z" fill="#00B0FF"/>
<path d="M171.548 116.673H132.399C131.78 116.673 131.186 116.401 130.748 115.917C130.31 115.433 130.064 114.777 130.064 114.092C130.064 113.408 130.31 112.751 130.748 112.267C131.186 111.783 131.78 111.511 132.399 111.511H171.548C172.168 111.511 172.761 111.783 173.199 112.267C173.637 112.751 173.883 113.408 173.883 114.092C173.883 114.777 173.637 115.433 173.199 115.917C172.761 116.401 172.168 116.673 171.548 116.673V116.673Z" fill="#00B0FF"/>
<path d="M161.873 150.083H88.3585C87.7391 150.083 87.1452 149.811 86.7073 149.327C86.2694 148.843 86.0233 148.187 86.0233 147.502C86.0233 146.818 86.2694 146.161 86.7073 145.677C87.1452 145.193 87.7391 144.921 88.3585 144.921H161.873C162.492 144.921 163.086 145.193 163.524 145.677C163.962 146.161 164.208 146.818 164.208 147.502C164.208 148.187 163.962 148.843 163.524 149.327C163.086 149.811 162.492 150.083 161.873 150.083V150.083Z" fill="#CCCCCC"/>
<path d="M171.505 158.794H88.3585C87.7391 158.794 87.1452 158.522 86.7073 158.038C86.2694 157.554 86.0233 156.898 86.0233 156.213C86.0233 155.529 86.2694 154.872 86.7073 154.388C87.1452 153.904 87.7391 153.632 88.3585 153.632H171.505C172.125 153.632 172.719 153.904 173.156 154.388C173.594 154.872 173.84 155.529 173.84 156.213C173.84 156.898 173.594 157.554 173.156 158.038C172.719 158.522 172.125 158.794 171.505 158.794V158.794Z" fill="#CCCCCC"/>
<path d="M161.873 178.816H88.3585C87.7397 178.815 87.1464 178.542 86.7092 178.058C86.2719 177.574 86.0262 176.918 86.0262 176.234C86.0262 175.551 86.2719 174.895 86.7092 174.411C87.1464 173.927 87.7397 173.654 88.3585 173.653H161.873C162.492 173.653 163.086 173.925 163.524 174.409C163.962 174.893 164.208 175.55 164.208 176.234C164.208 176.919 163.962 177.576 163.524 178.06C163.086 178.544 162.492 178.816 161.873 178.816V178.816Z" fill="#CCCCCC"/>
<path d="M171.505 187.526H88.3585C87.7397 187.526 87.1465 187.253 86.7092 186.769C86.2719 186.285 86.0262 185.629 86.0262 184.945C86.0262 184.261 86.2719 183.605 86.7092 183.122C87.1465 182.638 87.7397 182.365 88.3585 182.364H171.505C172.125 182.364 172.719 182.636 173.156 183.12C173.594 183.604 173.84 184.261 173.84 184.945C173.84 185.63 173.594 186.286 173.156 186.771C172.719 187.255 172.125 187.526 171.505 187.526Z" fill="#CCCCCC"/>
<path d="M161.873 207.548H88.3585C87.7391 207.548 87.1452 207.276 86.7073 206.792C86.2694 206.308 86.0233 205.651 86.0233 204.967C86.0233 204.282 86.2694 203.626 86.7073 203.142C87.1452 202.657 87.7391 202.386 88.3585 202.386H161.873C162.492 202.386 163.086 202.657 163.524 203.142C163.962 203.626 164.208 204.282 164.208 204.967C164.208 205.651 163.962 206.308 163.524 206.792C163.086 207.276 162.492 207.548 161.873 207.548V207.548Z" fill="#CCCCCC"/>
<path d="M171.505 216.259H88.3585C87.7391 216.259 87.1452 215.987 86.7073 215.503C86.2694 215.019 86.0233 214.362 86.0233 213.678C86.0233 212.993 86.2694 212.337 86.7073 211.852C87.1452 211.368 87.7391 211.097 88.3585 211.097H171.505C172.125 211.097 172.719 211.368 173.156 211.852C173.594 212.337 173.84 212.993 173.84 213.678C173.84 214.362 173.594 215.019 173.156 215.503C172.719 215.987 172.125 216.259 171.505 216.259V216.259Z" fill="#CCCCCC"/>
<path d="M180.899 199.141C177.876 199.137 174.881 199.792 172.087 201.068C169.293 202.344 166.753 204.217 164.614 206.579C162.475 208.94 160.778 211.745 159.62 214.832C158.463 217.919 157.867 221.228 157.867 224.57C157.867 227.912 158.462 231.221 159.62 234.308C160.778 237.395 162.475 240.2 164.614 242.562C166.753 244.923 169.293 246.796 172.087 248.072C174.881 249.349 177.876 250.004 180.899 250H180.899C186.994 249.988 192.835 247.304 197.141 242.536C201.447 237.768 203.865 231.307 203.865 224.57C203.865 217.834 201.447 211.372 197.141 206.605C192.835 201.837 186.994 199.153 180.899 199.141V199.141Z" fill="#00B0FF"/>
<path d="M178.716 235.131C178.111 235.133 177.521 234.916 177.036 234.514L177.006 234.489L170.679 229.14C170.088 228.638 169.702 227.898 169.604 227.081C169.507 226.264 169.707 225.438 170.161 224.784C170.614 224.131 171.284 223.703 172.023 223.594C172.761 223.486 173.509 223.707 174.101 224.207L178.199 227.681L187.883 213.717C188.107 213.393 188.387 213.121 188.707 212.917C189.026 212.713 189.379 212.58 189.745 212.527C190.111 212.473 190.483 212.5 190.839 212.606C191.196 212.711 191.53 212.893 191.823 213.141L191.823 213.141L191.824 213.142L191.764 213.234L191.825 213.142C192.416 213.644 192.803 214.384 192.9 215.201C192.998 216.018 192.798 216.844 192.345 217.498L180.955 233.916C180.691 234.294 180.353 234.6 179.965 234.81C179.577 235.02 179.151 235.129 178.719 235.128L178.716 235.131Z" fill="white"/>
</g>
<defs>
<clipPath id="clip0">
<rect width="250" height="250" fill="white"/>
</clipPath>
</defs>
</svg>